name rise38.3101peak57.3503fall81.6963.mot
datacolumns 19
datarows 21
range 21.64659000000000 21.67991900000000
endheader
time	ground_force1_vx	ground_force1_vy	ground_force1_vz	ground_force1_px	ground_force1_py	ground_force1_pz	ground_force2_vx	ground_force2_vy	ground_force2_vz	ground_force2_px	ground_force2_py	ground_force2_pz	ground_torque1_x	ground_torque1_y	ground_torque1_z	ground_torque2_x	ground_torque2_y	ground_torque2_z	
21.64659000000000	7.25569800000000	685.92862100000002	38.77654200000000	0.23949200000000	0.00000000000000	0.08926100000000	0.00000000000000	0.00000000000000	0.00000000000000	0.00000000000000	0.00000000000000	0.00000000000000	0.00000000000000	18.20505200000000	0.00000000000000	0.00000000000000	0.00000000000000	0.00000000000000	
21.64825600000000	6.59897800000000	687.25079800000003	38.83175100000000	0.23877800000000	0.00000000000000	0.08926600000000	0.00000000000000	0.00000000000000	0.00000000000000	0.00000000000000	0.00000000000000	0.00000000000000	0.00000000000000	18.31736300000000	0.00000000000000	0.00000000000000	0.00000000000000	0.00000000000000	
21.64992200000000	5.92083100000000	688.60400000000004	38.88492300000000	0.23803700000000	0.00000000000000	0.08927100000000	0.00000000000000	0.00000000000000	0.00000000000000	0.00000000000000	0.00000000000000	0.00000000000000	0.00000000000000	18.43200200000000	0.00000000000000	0.00000000000000	0.00000000000000	0.00000000000000	
21.65158600000000	5.22101500000000	689.98823300000004	38.93605400000000	0.23726600000000	0.00000000000000	0.08927600000000	0.00000000000000	0.00000000000000	0.00000000000000	0.00000000000000	0.00000000000000	0.00000000000000	0.00000000000000	18.54890800000000	0.00000000000000	0.00000000000000	0.00000000000000	0.00000000000000	
21.65325200000000	4.49936000000000	691.40360299999998	38.98516600000000	0.23646500000000	0.00000000000000	0.08928200000000	0.00000000000000	0.00000000000000	0.00000000000000	0.00000000000000	0.00000000000000	0.00000000000000	0.00000000000000	18.66802600000000	0.00000000000000	0.00000000000000	0.00000000000000	0.00000000000000	
21.65491900000000	3.75576700000000	692.85031000000004	39.03231400000000	0.23563100000000	0.00000000000000	0.08928800000000	0.00000000000000	0.00000000000000	0.00000000000000	0.00000000000000	0.00000000000000	0.00000000000000	0.00000000000000	18.78930600000000	0.00000000000000	0.00000000000000	0.00000000000000	0.00000000000000	
21.65659300000000	2.99021100000000	694.32863799999996	39.07758000000000	0.23476400000000	0.00000000000000	0.08929400000000	0.00000000000000	0.00000000000000	0.00000000000000	0.00000000000000	0.00000000000000	0.00000000000000	0.00000000000000	18.91270600000000	0.00000000000000	0.00000000000000	0.00000000000000	0.00000000000000	
21.65825700000000	2.20273900000000	695.83895199999995	39.12107700000000	0.23386300000000	0.00000000000000	0.08930200000000	0.00000000000000	0.00000000000000	0.00000000000000	0.00000000000000	0.00000000000000	0.00000000000000	0.00000000000000	19.03818900000000	0.00000000000000	0.00000000000000	0.00000000000000	0.00000000000000	
21.65991800000000	1.39347200000000	697.38168599999995	39.16294400000000	0.23292500000000	0.00000000000000	0.08930900000000	0.00000000000000	0.00000000000000	0.00000000000000	0.00000000000000	0.00000000000000	0.00000000000000	0.00000000000000	19.16572000000000	0.00000000000000	0.00000000000000	0.00000000000000	0.00000000000000	
21.66159400000000	0.56260600000000	698.95734000000004	39.20334800000000	0.23195100000000	0.00000000000000	0.08931800000000	0.00000000000000	0.00000000000000	0.00000000000000	0.00000000000000	0.00000000000000	0.00000000000000	0.00000000000000	19.29527300000000	0.00000000000000	0.00000000000000	0.00000000000000	0.00000000000000	
21.66325300000000	-0.28959300000000	700.56646599999999	39.24248100000000	0.23094000000000	0.00000000000000	0.08932800000000	0.00000000000000	0.00000000000000	0.00000000000000	0.00000000000000	0.00000000000000	0.00000000000000	0.00000000000000	19.42682400000000	0.00000000000000	0.00000000000000	0.00000000000000	0.00000000000000	
21.66492300000000	-1.16278400000000	702.20965899999999	39.28056200000000	0.22989200000000	0.00000000000000	0.08933800000000	0.00000000000000	0.00000000000000	0.00000000000000	0.00000000000000	0.00000000000000	0.00000000000000	0.00000000000000	19.56035100000000	0.00000000000000	0.00000000000000	0.00000000000000	0.00000000000000	
21.66658900000000	-2.05655400000000	703.88755300000003	39.31783200000000	0.22880700000000	0.00000000000000	0.08935000000000	0.00000000000000	0.00000000000000	0.00000000000000	0.00000000000000	0.00000000000000	0.00000000000000	0.00000000000000	19.69583700000000	0.00000000000000	0.00000000000000	0.00000000000000	0.00000000000000	
21.66825400000000	-2.97042100000000	705.60080200000004	39.35455700000000	0.22768400000000	0.00000000000000	0.08936300000000	0.00000000000000	0.00000000000000	0.00000000000000	0.00000000000000	0.00000000000000	0.00000000000000	0.00000000000000	19.83326600000000	0.00000000000000	0.00000000000000	0.00000000000000	0.00000000000000	
21.66992600000000	-3.90383100000000	707.35007800000005	39.39102300000000	0.22652400000000	0.00000000000000	0.08937700000000	0.00000000000000	0.00000000000000	0.00000000000000	0.00000000000000	0.00000000000000	0.00000000000000	0.00000000000000	19.97262600000000	0.00000000000000	0.00000000000000	0.00000000000000	0.00000000000000	
21.67158600000000	-4.85616500000000	709.13605399999994	39.42753700000000	0.22532800000000	0.00000000000000	0.08939200000000	0.00000000000000	0.00000000000000	0.00000000000000	0.00000000000000	0.00000000000000	0.00000000000000	0.00000000000000	20.11390200000000	0.00000000000000	0.00000000000000	0.00000000000000	0.00000000000000	
21.67325300000000	-5.82673700000000	710.95939699999997	39.46442700000000	0.22409600000000	0.00000000000000	0.08940800000000	0.00000000000000	0.00000000000000	0.00000000000000	0.00000000000000	0.00000000000000	0.00000000000000	0.00000000000000	20.25708300000000	0.00000000000000	0.00000000000000	0.00000000000000	0.00000000000000	
21.67492500000000	-6.81479700000000	712.82075599999996	39.50203700000000	0.22282900000000	0.00000000000000	0.08942500000000	0.00000000000000	0.00000000000000	0.00000000000000	0.00000000000000	0.00000000000000	0.00000000000000	0.00000000000000	20.40215500000000	0.00000000000000	0.00000000000000	0.00000000000000	0.00000000000000	
21.67658800000000	-7.81953300000000	714.72074999999995	39.54072900000000	0.22152900000000	0.00000000000000	0.08944400000000	0.00000000000000	0.00000000000000	0.00000000000000	0.00000000000000	0.00000000000000	0.00000000000000	0.00000000000000	20.54910400000000	0.00000000000000	0.00000000000000	0.00000000000000	0.00000000000000	
21.67825400000000	-8.84007700000000	716.65995699999996	39.58088100000000	0.22019700000000	0.00000000000000	0.08946300000000	0.00000000000000	0.00000000000000	0.00000000000000	0.00000000000000	0.00000000000000	0.00000000000000	0.00000000000000	20.69791400000000	0.00000000000000	0.00000000000000	0.00000000000000	0.00000000000000	
21.67991900000000	-9.87550200000000	718.63890400000003	39.62288400000000	0.21883400000000	0.00000000000000	0.08948400000000	0.00000000000000	0.00000000000000	0.00000000000000	0.00000000000000	0.00000000000000	0.00000000000000	0.00000000000000	20.84856700000000	0.00000000000000	0.00000000000000	0.00000000000000	0.00000000000000	
